<svg width="13" height="13" viewBox="0 0 13 13" fill="none" xmlns="http://www.w3.org/2000/svg">
<path d="M11.3747 2.16667H9.69551C9.56979 1.55535 9.23716 1.00606 8.75369 0.611389C8.27021 0.216715 7.66545 0.000787867 7.04134 0L5.95801 0C5.3339 0.000787867 4.72914 0.216715 4.24566 0.611389C3.76219 1.00606 3.42956 1.55535 3.30384 2.16667H1.62467C1.48102 2.16667 1.34324 2.22374 1.24166 2.32532C1.14008 2.4269 1.08301 2.56467 1.08301 2.70833C1.08301 2.85199 1.14008 2.98977 1.24166 3.09135C1.34324 3.19293 1.48102 3.25 1.62467 3.25H2.16634V10.2917C2.1672 11.0097 2.45282 11.6981 2.96054 12.2058C3.46827 12.7135 4.15664 12.9991 4.87467 13H8.12467C8.84271 12.9991 9.53108 12.7135 10.0388 12.2058C10.5465 11.6981 10.8321 11.0097 10.833 10.2917V3.25H11.3747C11.5183 3.25 11.6561 3.19293 11.7577 3.09135C11.8593 2.98977 11.9163 2.85199 11.9163 2.70833C11.9163 2.56467 11.8593 2.4269 11.7577 2.32532C11.6561 2.22374 11.5183 2.16667 11.3747 2.16667V2.16667ZM5.95801 1.08333H7.04134C7.37732 1.08374 7.70495 1.18808 7.9793 1.38203C8.25365 1.57598 8.46128 1.85006 8.57372 2.16667H4.42563C4.53807 1.85006 4.7457 1.57598 5.02005 1.38203C5.2944 1.18808 5.62203 1.08374 5.95801 1.08333V1.08333ZM9.74967 10.2917C9.74967 10.7226 9.57847 11.136 9.27372 11.4407C8.96898 11.7455 8.55565 11.9167 8.12467 11.9167H4.87467C4.4437 11.9167 4.03037 11.7455 3.72563 11.4407C3.42088 11.136 3.24967 10.7226 3.24967 10.2917V3.25H9.74967V10.2917Z" fill="#D8DAE5"/>
<path d="M5.41667 9.74965C5.56032 9.74965 5.6981 9.69258 5.79968 9.591C5.90126 9.48941 5.95833 9.35164 5.95833 9.20798V5.95799C5.95833 5.81433 5.90126 5.67655 5.79968 5.57497C5.6981 5.47339 5.56032 5.41632 5.41667 5.41632C5.27301 5.41632 5.13523 5.47339 5.03365 5.57497C4.93207 5.67655 4.875 5.81433 4.875 5.95799V9.20798C4.875 9.35164 4.93207 9.48941 5.03365 9.591C5.13523 9.69258 5.27301 9.74965 5.41667 9.74965Z" fill="#D8DAE5"/>
<path d="M7.58366 9.74965C7.72732 9.74965 7.8651 9.69258 7.96668 9.591C8.06826 9.48941 8.12533 9.35164 8.12533 9.20798V5.95799C8.12533 5.81433 8.06826 5.67655 7.96668 5.57497C7.8651 5.47339 7.72732 5.41632 7.58366 5.41632C7.44 5.41632 7.30223 5.47339 7.20064 5.57497C7.09906 5.67655 7.04199 5.81433 7.04199 5.95799V9.20798C7.04199 9.35164 7.09906 9.48941 7.20064 9.591C7.30223 9.69258 7.44 9.74965 7.58366 9.74965Z" fill="#D8DAE5"/>
</svg>
