<svg width="24" height="24" viewBox="0 0 24 24" fill="none" xmlns="http://www.w3.org/2000/svg">
<g clip-path="url(#clip0_38_1049)">
<path d="M15.1992 3.5294C14.9753 3.93043 14.7757 4.34458 14.6016 4.76961C12.891 4.49908 11.1485 4.49908 9.43788 4.76961C9.26379 4.34458 9.06424 3.93043 8.84032 3.5294C7.22895 3.80473 5.66248 4.29781 4.18392 4.9951C1.53996 8.81074 0.340908 13.4431 0.801545 18.0623C2.52457 19.3576 4.45841 20.3455 6.51776 20.9825C6.98668 20.363 7.40519 19.707 7.76924 19.0207C7.09736 18.773 6.45157 18.4595 5.84128 18.0849C6.00867 17.9735 6.167 17.8491 6.31482 17.7128C8.09446 18.5701 10.0444 19.0152 12.0198 19.0152C13.9951 19.0152 15.945 18.5701 17.7247 17.7128C17.8825 17.8481 18.0404 17.9721 18.1982 18.0849C17.5846 18.4566 16.9395 18.7735 16.2703 19.032C16.6192 19.7338 17.0265 20.4052 17.4879 21.0388C19.5447 20.4041 21.4752 19.416 23.1929 18.1187C23.6646 13.4986 22.4645 8.86249 19.8105 5.05147C18.3486 4.33975 16.7976 3.82781 15.1992 3.5294ZM8.2766 15.4241C7.7124 15.3836 7.18583 15.1261 6.80743 14.7056C6.42903 14.2852 6.22822 13.7345 6.24717 13.1692C6.22537 12.6031 6.42518 12.0508 6.80415 11.6298C7.18312 11.2087 7.71136 10.952 8.2766 10.9143C8.84184 10.952 9.37007 11.2087 9.74904 11.6298C10.128 12.0508 10.3278 12.6031 10.306 13.1692C10.3278 13.7353 10.128 14.2875 9.74904 14.7086C9.37007 15.1297 8.84184 15.3864 8.2766 15.4241ZM15.7629 15.4241C15.1987 15.3836 14.6722 15.1261 14.2938 14.7056C13.9154 14.2852 13.7145 13.7345 13.7335 13.1692C13.7117 12.6031 13.9115 12.0508 14.2905 11.6298C14.6694 11.2087 15.1977 10.952 15.7629 10.9143C16.3292 10.9492 16.8592 11.205 17.2387 11.6268C17.6183 12.0485 17.8171 12.6023 17.7923 13.1692C17.8171 13.736 17.6183 14.2899 17.2387 14.7116C16.8592 15.1333 16.3292 15.3892 15.7629 15.4241Z" fill="white"/>
</g>
<defs>
<clipPath id="clip0_38_1049">
<rect width="22.5882" height="22.5882" fill="white" transform="translate(0.705078 0.705872)"/>
</clipPath>
</defs>
</svg>
