<svg width="15" height="15" viewBox="0 0 15 15" fill="none" xmlns="http://www.w3.org/2000/svg">
<path d="M14.4506 5.66807L9.71001 0.926822C9.12328 0.341815 8.32855 0.0133057 7.50001 0.0133057C6.67147 0.0133057 5.87673 0.341815 5.29001 0.926822L0.549383 5.66807C0.374648 5.84169 0.236114 6.04826 0.141809 6.27581C0.0475045 6.50337 -0.000694 6.74738 7.54968e-06 6.9937V13.1293C7.54968e-06 13.6266 0.197552 14.1035 0.549182 14.4551C0.900813 14.8068 1.37773 15.0043 1.87501 15.0043H13.125C13.6223 15.0043 14.0992 14.8068 14.4508 14.4551C14.8025 14.1035 15 13.6266 15 13.1293V6.9937C15.0007 6.74738 14.9525 6.50337 14.8582 6.27581C14.7639 6.04826 14.6254 5.84169 14.4506 5.66807V5.66807ZM9.37501 13.7543H5.62501V11.2956C5.62501 10.7983 5.82255 10.3214 6.17418 9.96975C6.52581 9.61812 7.00273 9.42057 7.50001 9.42057C7.99729 9.42057 8.4742 9.61812 8.82583 9.96975C9.17746 10.3214 9.37501 10.7983 9.37501 11.2956V13.7543ZM13.75 13.1293C13.75 13.2951 13.6842 13.4541 13.5669 13.5713C13.4497 13.6885 13.2908 13.7543 13.125 13.7543H10.625V11.2956C10.625 10.4668 10.2958 9.67192 9.70972 9.08586C9.12367 8.49981 8.32881 8.17057 7.50001 8.17057C6.67121 8.17057 5.87635 8.49981 5.2903 9.08586C4.70425 9.67192 4.37501 10.4668 4.37501 11.2956V13.7543H1.87501C1.70925 13.7543 1.55028 13.6885 1.43307 13.5713C1.31586 13.4541 1.25001 13.2951 1.25001 13.1293V6.9937C1.25059 6.82806 1.31638 6.66931 1.43313 6.55182L6.17376 1.81245C6.52607 1.46178 7.00292 1.26491 7.50001 1.26491C7.99709 1.26491 8.47395 1.46178 8.82626 1.81245L13.5669 6.5537C13.6832 6.67073 13.7489 6.82871 13.75 6.9937V13.1293Z" fill="#FAFAFA"/>
</svg>
