<svg width="15" height="15" viewBox="0 0 15 15" fill="none" xmlns="http://www.w3.org/2000/svg">
<g clip-path="url(#clip0_38_397)">
<path d="M7.8275 9.375C7.99326 9.375 8.15223 9.44085 8.26944 9.55806C8.38665 9.67527 8.4525 9.83424 8.4525 10V11.875C8.4525 12.3723 8.65004 12.8492 9.00168 13.2008C9.35331 13.5525 9.83022 13.75 10.3275 13.75H11.875C12.3723 13.75 12.8492 13.5525 13.2008 13.2008C13.5525 12.8492 13.75 12.3723 13.75 11.875V3.125C13.75 2.62772 13.5525 2.15081 13.2008 1.79917C12.8492 1.44754 12.3723 1.25 11.875 1.25H10.3275C9.83022 1.25 9.35331 1.44754 9.00168 1.79917C8.65004 2.15081 8.4525 2.62772 8.4525 3.125V5C8.4525 5.16576 8.38665 5.32473 8.26944 5.44194C8.15223 5.55915 7.99326 5.625 7.8275 5.625C7.66174 5.625 7.50277 5.55915 7.38556 5.44194C7.26835 5.32473 7.2025 5.16576 7.2025 5V3.125C7.20349 2.2965 7.53305 1.50222 8.11889 0.916387C8.70472 0.330551 9.499 0.000992411 10.3275 0H11.875C12.7035 0.000992411 13.4978 0.330551 14.0836 0.916387C14.6694 1.50222 14.999 2.2965 15 3.125L15 11.875C14.999 12.7035 14.6694 13.4978 14.0836 14.0836C13.4978 14.6694 12.7035 14.999 11.875 15H10.3275C9.499 14.999 8.70472 14.6694 8.11889 14.0836C7.53305 13.4978 7.20349 12.7035 7.2025 11.875V10C7.2025 9.83424 7.26835 9.67527 7.38556 9.55806C7.50277 9.44085 7.66174 9.375 7.8275 9.375Z" fill="#FE3333"/>
<path d="M0.708123 6.17449L3.57437 3.30824C3.63203 3.24854 3.70099 3.20093 3.77725 3.16817C3.8535 3.13542 3.93551 3.11818 4.0185 3.11746C4.10148 3.11673 4.18378 3.13255 4.2606 3.16397C4.33741 3.1954 4.40719 3.24181 4.46587 3.30049C4.52455 3.35917 4.57096 3.42896 4.60239 3.50577C4.63381 3.58258 4.64963 3.66488 4.64891 3.74786C4.64818 3.83085 4.63094 3.91286 4.59819 3.98911C4.56543 4.06537 4.51782 4.13433 4.45812 4.19199L1.79437 6.85636L11.25 6.87511C11.4158 6.87511 11.5747 6.94096 11.6919 7.05817C11.8092 7.17538 11.875 7.33435 11.875 7.50011C11.875 7.66587 11.8092 7.82484 11.6919 7.94205C11.5747 8.05926 11.4158 8.12511 11.25 8.12511L1.7575 8.10574L4.45937 10.8082C4.51907 10.8659 4.56668 10.9349 4.59944 11.0111C4.63219 11.0874 4.64943 11.1694 4.65016 11.2524C4.65088 11.3353 4.63506 11.4176 4.60364 11.4945C4.57221 11.5713 4.5258 11.6411 4.46712 11.6997C4.40844 11.7584 4.33866 11.8048 4.26185 11.8363C4.18504 11.8677 4.10274 11.8835 4.01975 11.8828C3.93676 11.882 3.85475 11.8648 3.7785 11.8321C3.70224 11.7993 3.63328 11.7517 3.57562 11.692L0.709374 8.82574C0.3577 8.47429 0.160008 7.99755 0.159774 7.50037C0.159539 7.00319 0.356781 6.52627 0.708123 6.17449Z" fill="#FE3333"/>
</g>
<defs>
<clipPath id="clip0_38_397">
<rect width="15" height="15" fill="white" transform="matrix(-1 0 0 1 15 0)"/>
</clipPath>
</defs>
</svg>
