<svg width="15" height="15" viewBox="0 0 15 15" fill="none" xmlns="http://www.w3.org/2000/svg">
<g clip-path="url(#clip0_38_393)">
<path d="M3.7325 13.9275C3.59588 13.9274 3.46304 13.8826 3.35431 13.7999C3.24558 13.7172 3.16694 13.6012 3.13043 13.4695C3.09392 13.3379 3.10155 13.1979 3.15215 13.071C3.20276 12.9441 3.29355 12.8373 3.41062 12.7669C5.625 11.4369 5.625 8.58061 5.625 6.87436C5.625 6.37708 5.82254 5.90017 6.17417 5.54854C6.52581 5.19691 7.00272 4.99936 7.5 4.99936C7.99728 4.99936 8.47419 5.19691 8.82583 5.54854C9.17746 5.90017 9.375 6.37708 9.375 6.87436C9.375 7.04012 9.30915 7.19909 9.19194 7.3163C9.07473 7.43351 8.91576 7.49936 8.75 7.49936C8.58424 7.49936 8.42527 7.43351 8.30806 7.3163C8.19085 7.19909 8.125 7.04012 8.125 6.87436C8.125 6.7086 8.05915 6.54963 7.94194 6.43242C7.82473 6.31521 7.66576 6.24936 7.5 6.24936C7.33424 6.24936 7.17527 6.31521 7.05806 6.43242C6.94085 6.54963 6.875 6.7086 6.875 6.87436C6.875 8.71624 6.875 12.1456 4.05375 13.8387C3.95667 13.8969 3.84564 13.9275 3.7325 13.9275ZM6.83438 14.8156C8.26062 13.3781 9.09375 11.3569 9.31 8.80249C9.31729 8.72055 9.30833 8.63797 9.28364 8.5595C9.25895 8.48103 9.21901 8.40821 9.16611 8.3452C9.11321 8.2822 9.0484 8.23026 8.97538 8.19237C8.90237 8.15447 8.82259 8.13136 8.74062 8.12436C8.65861 8.11595 8.57574 8.12413 8.49696 8.14842C8.41817 8.17271 8.34508 8.21261 8.28204 8.26574C8.21899 8.31886 8.16729 8.38414 8.13 8.45767C8.09272 8.5312 8.07061 8.61148 8.065 8.69374C7.87063 10.9794 7.17812 12.6937 5.9475 13.9319C5.83064 14.0495 5.76528 14.2087 5.76581 14.3745C5.76634 14.5403 5.83271 14.6991 5.95031 14.8159C6.06792 14.9328 6.22713 14.9981 6.39293 14.9976C6.55872 14.9971 6.71751 14.9307 6.83438 14.8131V14.8156ZM10.0844 14.6994C10.4635 14.0694 10.7792 13.4035 11.0269 12.7112C11.0787 12.5564 11.0678 12.3875 10.9966 12.2406C10.9255 12.0936 10.7997 11.9804 10.6461 11.925C10.4925 11.8697 10.3234 11.8766 10.1748 11.9443C10.0263 12.0121 9.91016 12.1352 9.85125 12.2875C9.63119 12.9013 9.35108 13.4918 9.015 14.0506C8.9724 14.1208 8.94405 14.1987 8.93157 14.2799C8.91908 14.3611 8.92271 14.4439 8.94224 14.5237C8.96177 14.6035 8.99682 14.6786 9.04539 14.7448C9.09396 14.8111 9.1551 14.8671 9.22531 14.9097C9.36712 14.9957 9.5373 15.0219 9.6984 14.9824C9.77817 14.9629 9.85332 14.9279 9.91954 14.8793C9.98577 14.8307 10.0418 14.7696 10.0844 14.6994ZM11.5625 10.7437C11.794 9.46741 11.8987 8.1713 11.875 6.87436C11.8744 5.98892 11.6052 5.1245 11.1029 4.39534C10.6005 3.66617 9.8888 3.10658 9.0617 2.79051C8.23459 2.47445 7.33105 2.41678 6.47047 2.62515C5.6099 2.83351 4.8328 3.29809 4.24188 3.95749C4.18432 4.01811 4.13952 4.08967 4.11011 4.16792C4.08071 4.24617 4.0673 4.32952 4.07068 4.41304C4.07406 4.49657 4.09416 4.57857 4.12979 4.65418C4.16542 4.7298 4.21586 4.7975 4.27812 4.85328C4.34038 4.90906 4.4132 4.95179 4.49226 4.97892C4.57133 5.00606 4.65503 5.01707 4.73842 5.01128C4.82181 5.00549 4.9032 4.98304 4.97776 4.94524C5.05232 4.90745 5.11854 4.85508 5.1725 4.79124C5.59455 4.32016 6.14961 3.98824 6.76432 3.83934C7.37903 3.69044 8.02445 3.73157 8.61528 3.9573C9.20612 4.18303 9.71455 4.58273 10.0734 5.10357C10.4322 5.62441 10.6246 6.24188 10.625 6.87436C10.6481 8.09111 10.5513 9.30718 10.3363 10.505C10.3047 10.6676 10.339 10.8361 10.4315 10.9734C10.5241 11.1108 10.6674 11.2057 10.83 11.2375C10.8697 11.2454 10.9101 11.2494 10.9506 11.2494C11.0954 11.249 11.2355 11.1984 11.3471 11.1062C11.4587 11.0139 11.5349 10.8858 11.5625 10.7437ZM4.375 6.87436C4.37482 6.69992 4.38924 6.52577 4.41812 6.35374C4.43679 6.27092 4.43838 6.18516 4.42281 6.10171C4.40724 6.01825 4.37483 5.93884 4.32755 5.86833C4.28028 5.79781 4.21914 5.73766 4.14785 5.69156C4.07657 5.64545 3.99664 5.61435 3.91294 5.60015C3.82924 5.58595 3.74352 5.58895 3.66102 5.60897C3.57852 5.62899 3.50096 5.66561 3.43308 5.7166C3.3652 5.76758 3.30841 5.83186 3.26619 5.90551C3.22397 5.97916 3.19719 6.06065 3.1875 6.14499C3.14624 6.38593 3.12534 6.62991 3.125 6.87436C3.125 9.77749 2.28375 11.2494 0.625 11.2494C0.45924 11.2494 0.300269 11.3152 0.183058 11.4324C0.065848 11.5496 0 11.7086 0 11.8744C0 12.0401 0.065848 12.1991 0.183058 12.3163C0.300269 12.4335 0.45924 12.4994 0.625 12.4994C3.04312 12.4994 4.375 10.4994 4.375 6.87436ZM12.9375 14.6331C13.9661 12.1794 14.4563 9.53366 14.375 6.87436C14.3779 5.83619 14.1427 4.81118 13.6875 3.87811C13.6516 3.80424 13.6015 3.73817 13.54 3.68367C13.4786 3.62916 13.407 3.58729 13.3294 3.56045C13.2518 3.53361 13.1696 3.52232 13.0876 3.52723C13.0056 3.53213 12.9254 3.55314 12.8516 3.58905C12.7777 3.62496 12.7116 3.67506 12.6571 3.73651C12.6026 3.79795 12.5607 3.86953 12.5339 3.94715C12.5071 4.02477 12.4958 4.10693 12.5007 4.18891C12.5056 4.2709 12.5266 4.35112 12.5625 4.42499C12.9344 5.18784 13.1268 6.02568 13.125 6.87436C13.2037 9.35484 12.7522 11.8236 11.8006 14.1156C11.7667 14.1905 11.748 14.2712 11.7453 14.3534C11.7427 14.4355 11.7563 14.5173 11.7853 14.5942C11.8143 14.671 11.8582 14.7414 11.9145 14.8013C11.9707 14.8611 12.0382 14.9093 12.1131 14.9431C12.1941 14.9803 12.2822 14.9995 12.3713 14.9994C12.4908 14.9989 12.6076 14.9641 12.708 14.8992C12.8084 14.8342 12.888 14.7419 12.9375 14.6331ZM1.875 8.74936V6.87436C1.87665 5.38303 2.46982 3.95325 3.52435 2.89871C4.57889 1.84418 6.00867 1.25101 7.5 1.24936C8.71774 1.2453 9.90324 1.64047 10.875 2.37436C11.0076 2.47382 11.1743 2.51652 11.3384 2.49308C11.5025 2.46964 11.6505 2.38197 11.75 2.24936C11.8495 2.11675 11.8922 1.95007 11.8687 1.78597C11.8453 1.62188 11.7576 1.47382 11.625 1.37436C10.4371 0.477749 8.98828 -0.00519314 7.5 -0.000639478C5.6773 0.00151082 3.92986 0.72653 2.64102 2.01538C1.35217 3.30422 0.62715 5.05166 0.625 6.87436V8.74936C0.625 8.91512 0.690848 9.07409 0.808058 9.1913C0.925268 9.30851 1.08424 9.37436 1.25 9.37436C1.41576 9.37436 1.57473 9.30851 1.69194 9.1913C1.80915 9.07409 1.875 8.91512 1.875 8.74936Z" fill="#FAFAFA"/>
</g>
<defs>
<clipPath id="clip0_38_393">
<rect width="15" height="15" fill="white"/>
</clipPath>
</defs>
</svg>
