<svg width="15" height="15" viewBox="0 0 15 15" fill="none" xmlns="http://www.w3.org/2000/svg">
<g clip-path="url(#clip0_38_379)">
<path d="M14.375 13.75H3.125C2.62772 13.75 2.15081 13.5525 1.79917 13.2008C1.44754 12.8492 1.25 12.3723 1.25 11.875V0.625C1.25 0.45924 1.18415 0.300269 1.06694 0.183058C0.949732 0.065848 0.79076 0 0.625 0C0.45924 0 0.300269 0.065848 0.183058 0.183058C0.065848 0.300269 0 0.45924 0 0.625L0 11.875C0.000992411 12.7035 0.330551 13.4978 0.916387 14.0836C1.50222 14.6694 2.2965 14.999 3.125 15H14.375C14.5408 15 14.6997 14.9342 14.8169 14.8169C14.9342 14.6997 15 14.5408 15 14.375C15 14.2092 14.9342 14.0503 14.8169 13.9331C14.6997 13.8158 14.5408 13.75 14.375 13.75Z" fill="#FAFAFA"/>
<path d="M3.75 12.5C3.91576 12.5 4.07473 12.4341 4.19194 12.3169C4.30915 12.1997 4.375 12.0407 4.375 11.875V7.49997C4.375 7.33421 4.30915 7.17524 4.19194 7.05803C4.07473 6.94082 3.91576 6.87497 3.75 6.87497C3.58424 6.87497 3.42527 6.94082 3.30806 7.05803C3.19085 7.17524 3.125 7.33421 3.125 7.49997V11.875C3.125 12.0407 3.19085 12.1997 3.30806 12.3169C3.42527 12.4341 3.58424 12.5 3.75 12.5Z" fill="#FAFAFA"/>
<path d="M6.25 6.25V11.875C6.25 12.0408 6.31585 12.1997 6.43306 12.3169C6.55027 12.4341 6.70924 12.5 6.875 12.5C7.04076 12.5 7.19974 12.4341 7.31695 12.3169C7.43416 12.1997 7.50001 12.0408 7.50001 11.875V6.25C7.50001 6.08424 7.43416 5.92527 7.31695 5.80806C7.19974 5.69085 7.04076 5.625 6.875 5.625C6.70924 5.625 6.55027 5.69085 6.43306 5.80806C6.31585 5.92527 6.25 6.08424 6.25 6.25Z" fill="#FAFAFA"/>
<path d="M9.375 8.125V11.875C9.375 12.0408 9.44085 12.1997 9.55806 12.3169C9.67527 12.4341 9.83424 12.5 10 12.5C10.1658 12.5 10.3247 12.4341 10.4419 12.3169C10.5592 12.1997 10.625 12.0408 10.625 11.875V8.125C10.625 7.95924 10.5592 7.80027 10.4419 7.68306C10.3247 7.56585 10.1658 7.5 10 7.5C9.83424 7.5 9.67527 7.56585 9.55806 7.68306C9.44085 7.80027 9.375 7.95924 9.375 8.125Z" fill="#FAFAFA"/>
<path d="M12.5 5.62494V11.8749C12.5 12.0407 12.5658 12.1997 12.6831 12.3169C12.8003 12.4341 12.9592 12.4999 13.125 12.4999C13.2908 12.4999 13.4497 12.4341 13.5669 12.3169C13.6842 12.1997 13.75 12.0407 13.75 11.8749V5.62494C13.75 5.45918 13.6842 5.30021 13.5669 5.183C13.4497 5.06579 13.2908 4.99994 13.125 4.99994C12.9592 4.99994 12.8003 5.06579 12.6831 5.183C12.5658 5.30021 12.5 5.45918 12.5 5.62494Z" fill="#FAFAFA"/>
<path d="M3.74987 5.62495C3.91561 5.62491 4.07456 5.55904 4.19174 5.44182L6.43299 3.20057C6.55212 3.08709 6.71034 3.02379 6.87487 3.02379C7.0394 3.02379 7.19762 3.08709 7.31674 3.20057L8.67424 4.55807C9.02586 4.90958 9.50268 5.10705 9.99987 5.10705C10.497 5.10705 10.9739 4.90958 11.3255 4.55807L14.8167 1.06682C14.9306 0.948948 14.9936 0.791072 14.9922 0.627199C14.9907 0.463326 14.925 0.306568 14.8091 0.190688C14.6932 0.0748076 14.5365 0.00907703 14.3726 0.00765302C14.2087 0.00622901 14.0509 0.0692255 13.933 0.183074L10.4417 3.6737C10.3245 3.79087 10.1656 3.85669 9.99987 3.85669C9.83414 3.85669 9.6752 3.79087 9.55799 3.6737L8.20049 2.31682C7.84888 1.96532 7.37205 1.76785 6.87487 1.76785C6.37768 1.76785 5.90086 1.96532 5.54924 2.31682L3.30799 4.55807C3.22061 4.64548 3.16111 4.75683 3.137 4.87805C3.1129 4.99928 3.12527 5.12492 3.17257 5.23911C3.21986 5.3533 3.29995 5.4509 3.40271 5.51958C3.50546 5.58825 3.62627 5.62492 3.74987 5.62495Z" fill="#FAFAFA"/>
</g>
<defs>
<clipPath id="clip0_38_379">
<rect width="15" height="15" fill="white"/>
</clipPath>
</defs>
</svg>
